<svg xmlns="http://www.w3.org/2000/svg" xmlns:xlink="http://www.w3.org/1999/xlink" width="148" height="148" viewBox="0 0 148 148">
  <defs>
    <linearGradient id="linear-gradient" x1="0.5" x2="0.5" y2="1" gradientUnits="objectBoundingBox">
      <stop offset="0" stop-color="#fff"/>
      <stop offset="1" stop-color="gray"/>
    </linearGradient>
  </defs>
  <path id="whatsapp_icon" d="M-5380-451a73.538,73.538,0,0,1-28.8-5.815,73.751,73.751,0,0,1-23.521-15.859,73.752,73.752,0,0,1-15.859-23.522A73.533,73.533,0,0,1-5454-525a73.533,73.533,0,0,1,5.815-28.8,73.751,73.751,0,0,1,15.859-23.522,73.752,73.752,0,0,1,23.521-15.859A73.539,73.539,0,0,1-5380-599a73.539,73.539,0,0,1,28.8,5.815,73.747,73.747,0,0,1,23.521,15.859,73.753,73.753,0,0,1,15.859,23.522A73.533,73.533,0,0,1-5306-525a73.533,73.533,0,0,1-5.815,28.8,73.752,73.752,0,0,1-15.859,23.522,73.751,73.751,0,0,1-23.521,15.859A73.538,73.538,0,0,1-5380-451Zm.3-117.693h-.118a44.35,44.35,0,0,0-44.291,44.291,44.228,44.228,0,0,0,5.911,22.141l-6.284,22.954,23.48-6.161a44.365,44.365,0,0,0,21.169,5.393h.019a44.354,44.354,0,0,0,44.291-44.295,44.312,44.312,0,0,0-12.961-31.334A44.3,44.3,0,0,0-5379.7-568.693Zm-.114,81.137h-.015a36.8,36.8,0,0,1-18.748-5.136l-1.334-.794-13.937,3.657,3.721-13.586-.875-1.393a36.677,36.677,0,0,1-5.628-19.59,36.875,36.875,0,0,1,36.831-36.813,36.552,36.552,0,0,1,26.027,10.794,36.4,36.4,0,0,1,7.994,11.944,36.411,36.411,0,0,1,2.777,14.1A36.864,36.864,0,0,1-5379.812-487.556Zm-15.685-57.3a4.023,4.023,0,0,0-2.95,1.385l-.16.172-.049.052a12.185,12.185,0,0,0-3.664,9.01c0,4.887,3.152,9.625,4.508,11.436l.009.013c.037.049.1.145.2.286,3.118,4.465,9.694,12.536,18.7,16.425a62.777,62.777,0,0,0,6.309,2.328,13.885,13.885,0,0,0,4.283.653,17.985,17.985,0,0,0,2.689-.214,12.168,12.168,0,0,0,4.186-1.78,7.837,7.837,0,0,0,3.286-3.482c.929-2.608.913-4.813.644-5.263a3.532,3.532,0,0,0-1.508-.991c-.182-.088-.388-.187-.615-.3-1.436-.719-6.6-3.249-7.561-3.6a3.647,3.647,0,0,0-1.183-.284,1.538,1.538,0,0,0-1.308.843c-.727,1.087-2.821,3.558-3.5,4.335a1.534,1.534,0,0,1-1.193.634,2.757,2.757,0,0,1-1.2-.355c-.185-.094-.435-.2-.751-.34a28.431,28.431,0,0,1-8.15-5.153,33.059,33.059,0,0,1-6.157-7.669c-.656-1.125-.05-1.726.485-2.257.326-.324.707-.787,1.075-1.234l.007-.008c.171-.208.384-.467.579-.694a6.175,6.175,0,0,0,.952-1.536l.045-.093.109-.221a2.026,2.026,0,0,0-.092-1.937c-.179-.359-1.154-2.733-2.1-5.029l-.023-.056c-.519-1.264-.974-2.372-1.292-3.134-.789-1.9-1.6-1.9-2.184-1.9h-.147c-.059,0-.11,0-.157,0C-5394.078-544.853-5394.878-544.857-5395.5-544.857Z" transform="translate(5454 599)" fill="url(#linear-gradient)"/>
</svg>
